<svg xmlns="http://www.w3.org/2000/svg" enable-background="new 0 0 104.3 90.1" viewBox="0 0 104.3 90.1"><g display="none"><rect width="64" height="64" x="-4.7" y="51.9" fill="#eab5b5" enable-background="new" opacity=".2"/><rect width="64" height="64" x="107.6" y="51.9" fill="#eab5b5" enable-background="new" opacity=".2"/><rect width="64" height="64" x="44" y="-12.1" fill="#eab5b5" enable-background="new" opacity=".2"/><rect width="64" height="64" x="44" y="101.5" fill="#eab5b5" enable-background="new" opacity=".2"/><rect width="64" height="64" x="44" y="-39.6" fill="#eab5b5" enable-background="new" opacity=".2"/></g><path fill="#e9b4b4" d="M99.5,51l-1.4,0.2c-0.1,0-0.2,0.1-0.2,0.2l-0.6,1.2c-0.1,0.2-0.4,0.2-0.5,0l-0.6-1.2
						c0-0.1-0.1-0.2-0.2-0.2L94.7,51c-0.2,0-0.3-0.3-0.2-0.5l1-0.9c0.1-0.1,0.1-0.2,0.1-0.3L95.4,48c0-0.2,0.2-0.4,0.4-0.3l1.2,0.6
						c0.1,0,0.2,0,0.3,0l1.2-0.6c0.2-0.1,0.5,0.1,0.4,0.3l-0.2,1.3c0,0.1,0,0.2,0.1,0.3l1,0.9C99.8,50.7,99.7,51,99.5,51z"/><path fill="#e9b4b4" d="M70.3,55.7h16.2c1.9,0,3.5-0.8,4.8-2c1.2-1.2,1.9-2.8,2-4.6c0.1-3.8-3.2-6.9-7-6.9h-8.4
						c-1.5,0-2.7-1.1-3-2.5l0,0c0-1.9,1.6-3.5,3.5-3.5h13.1c3.7,0,6.7-3,6.7-6.7l0,0c0-3.7-3-6.7-6.7-6.7H67.1
						c-0.9,0-1.7-0.6-1.8-1.5c-0.2-1.1,0.7-2.1,1.7-2.1h5.8c2.8,0,5.3-2.1,5.6-4.9c0.3-3.2-2.2-5.9-5.4-5.9H45.1
						c-4.6,0-8.4,3.6-8.5,8.2v0.1c-0.6-0.2-1.2-0.3-1.8-0.3H18.3c-3.7,0-6.7,3-6.7,6.7l0,0c0,3.7,3,6.7,6.7,6.7h14.9
						c1.8,0,3.4,1.4,3.5,3.2c0.1,1.9-1.4,3.5-3.3,3.5H17c-1.9,0-3.5,0.8-4.8,2c-1.2,1.2-1.9,2.8-2,4.6c-0.1,3.8,3.2,6.9,7,6.9h8.5
						c1.5,0,2.7,1.1,3,2.5V56H12.1c-3.7,0-6.7,3-6.7,6.7l0,0c0,3.7,3,6.7,6.7,6.7h24.4c0.9,0,1.7,0.6,1.8,1.5
						c0.2,1.1-0.7,2.1-1.7,2.1h-5.8c-2.8,0-5.3,2.1-5.6,4.9c-0.3,3.2,2.2,5.9,5.4,5.9h27.9c4.6,0,8.4-3.6,8.5-8.2v-0.1
						c0.6,0.2,1.2,0.3,1.8,0.3h16.6c3.7,0,6.7-3,6.7-6.7l0,0c0-3.7-3-6.7-6.7-6.7H70.2c-1.9,0-3.4-1.6-3.3-3.5
						C66.9,57.1,68.5,55.7,70.3,55.7z M36.7,29.7v0.2C36.6,29.9,36.5,29.8,36.7,29.7z"/><path fill="#e9b4b4" d="M36.7,29.7v0.2C36.6,29.9,36.5,29.8,36.7,29.7z"/><path fill="#e9b4b4" d="M36.7 29.7v.2C36.6 29.9 36.5 29.8 36.7 29.7zM88.7 6.9c0-.7.5-1.2 1.2-1.2s1.2.5 1.2 1.2-.5 1.2-1.2 1.2C89.3 8.2 88.7 7.6 88.7 6.9z"/><rect width="1" height="3.1" x="13.8" y="5.4" fill="#e9b4b4"/><rect width="3.1" height="1" x="12.7" y="6.4" fill="#e9b4b4"/><path fill="#e9b4b4" d="M9.5 39.7L9.7 41c0 .2-.2.4-.4.3l-1.2-.6c-.1 0-.2 0-.3 0l-1.1.7c-.2.1-.5-.1-.4-.3l.2-1.3c0-.1 0-.2-.1-.3l-1-.9c-.2-.2-.1-.5.2-.5l1.3-.2c.1 0 .2-.1.2-.2l.6-1.2c.1-.2.4-.2.5 0l.6 1.2c0 .1.1.1.2.2l1.3.2c.2 0 .3.3.2.5l-1 .9C9.5 39.6 9.5 39.6 9.5 39.7zM16.3 82.1c0 .7-.5 1.2-1.2 1.2s-1.2-.5-1.2-1.2.5-1.2 1.2-1.2S16.3 81.5 16.3 82.1z"/><rect width="1" height="3.1" x="90.3" y="80.6" fill="#e9b4b4"/><rect width="3.1" height="1" x="89.2" y="81.6" fill="#e9b4b4"/><path fill="#fff" d="M75.2 72.2L75.2 72.2c0 1.1-.9 1.9-1.9 1.9H52.8c-1.1 0-1.9-.9-1.9-1.9l0 0c0-1.1.9-1.9 1.9-1.9h20.4C74.3 70.2 75.2 71.1 75.2 72.2zM53.6 70.2h18.7c4.4-3 7.2-8 7.2-13.7 0-7.2-4.6-13.3-11-15.6V27.4H57.4v13.5c-6.4 2.3-11 8.4-11 15.6C46.4 62.2 49.3 67.3 53.6 70.2z"/><path fill="#e05445" d="M47.6,50.4c-0.8,1.9-1.2,4-1.2,6.1c0,5.7,2.9,10.7,7.2,13.7h18.7c4.4-3,7.2-8,7.2-13.7
				c0-2.2-0.4-4.2-1.2-6.1C65.7,48.2,56.3,58,47.6,50.4z"/><path fill="#fff" d="M79.6,56.5c0,0.6,0,1.1-0.1,1.7c-0.2-1.5-0.5-3-1.1-4.4c-12.8-2.2-22.1,7.6-30.9,0c-0.5,1.4-0.9,2.9-1.1,4.4
				c-0.1-0.5-0.1-1.1-0.1-1.7c0-2.2,0.4-4.2,1.2-6.1c8.7,7.6,18.1-2.2,30.9,0C79.2,52.3,79.6,54.4,79.6,56.5z" opacity=".4"/><rect width="15.6" height="4.7" x="55.2" y="22.6" fill="#e05445"/><rect width="15.6" height="1.9" x="55.2" y="22.6" fill="#fff" opacity=".4"/><path fill="#241c70" d="M56.8 61.7c0 .9-.7 1.5-1.6 1.5-.9 0-1.5-.7-1.5-1.6s.7-1.5 1.6-1.5C56.1 60.2 56.8 60.9 56.8 61.7zM73.5 54.9c0 .8-.6 1.4-1.4 1.4s-1.4-.6-1.3-1.4c0-.8.6-1.4 1.4-1.3C72.9 53.6 73.5 54.2 73.5 54.9zM71.6 63.6c0 .8-.6 1.4-1.4 1.4s-1.4-.6-1.3-1.4c0-.8.6-1.4 1.4-1.3C71 62.2 71.6 62.8 71.6 63.6zM61.3 46c0 .8-.6 1.4-1.4 1.4s-1.4-.6-1.3-1.4c0-.8.6-1.4 1.4-1.3C60.7 44.6 61.4 45.3 61.3 46zM65.7 34.3c0 .8-.6 1.4-1.4 1.4-.8 0-1.4-.6-1.3-1.4 0-.8.6-1.4 1.4-1.3C65.1 32.9 65.7 33.6 65.7 34.3z"/><path fill="#241c70" d="M74.7,69.7c3.7-3.3,5.9-8.1,5.9-13.1c0-0.5,0-1-0.1-1.5c0-0.2,0-0.3-0.1-0.5c0-0.3-0.1-0.7-0.1-1
				c0-0.2-0.1-0.4-0.1-0.6c-0.1-0.3-0.1-0.6-0.2-0.9c0-0.2-0.1-0.4-0.1-0.5c-0.1-0.5-0.3-0.9-0.5-1.4c0,0,0,0,0-0.1l0,0
				c-1.8-4.4-5.2-8-9.7-9.8V28.4h1.2c0.6,0,1-0.4,1-1v-4.7c0-0.6-0.4-1-1-1H55.2c-0.6,0-1,0.4-1,1v4.7c0,0.6,0.4,1,1,1h1.2v11.9
				c-4.5,1.8-8,5.4-9.7,9.8l0,0l0,0c-0.2,0.5-0.3,0.9-0.5,1.4c0,0.2-0.1,0.3-0.1,0.5c-0.1,0.3-0.2,0.7-0.2,1c0,0.2-0.1,0.4-0.1,0.5
				c-0.1,0.3-0.1,0.7-0.1,1c0,0.2,0,0.3-0.1,0.5c0,0.5-0.1,1-0.1,1.5c0,5,2.2,9.8,5.9,13.1C50.5,70.1,50,71,50,72.1
				c0,1.6,1.3,2.9,2.9,2.9h20.4c1.6,0,2.9-1.3,2.9-2.9C76.2,71.1,75.6,70.2,74.7,69.7z M56.2,26.4v-2.7h13.6v2.7h-1.2l0,0H57.4l0,0
				H56.2z M57.7,41.8c0.4-0.1,0.7-0.5,0.7-0.9V28.4h9.3v12.5c0,0.4,0.3,0.8,0.7,0.9c3.7,1.3,6.7,4,8.5,7.3
				c-4.9-0.5-9.4,0.7-13.4,1.7c-5.7,1.5-10.2,2.6-14.6-0.8C50.5,46.3,53.7,43.3,57.7,41.8z M47.4,56.5c0-0.4,0-0.8,0-1.2
				c0-0.1,0-0.2,0-0.4c0-0.3,0.1-0.5,0.1-0.8c0-0.2,0.1-0.3,0.1-0.5s0.1-0.5,0.1-0.7s0.1-0.3,0.1-0.5s0.1-0.3,0.1-0.5
				c5,3.6,10.3,2.2,15.9,0.8c4.3-1.1,8.8-2.3,13.8-1.5c0,0.1,0.1,0.2,0.1,0.3c0.1,0.2,0.1,0.4,0.2,0.6s0.1,0.4,0.2,0.6
				s0.1,0.4,0.1,0.7c0,0.2,0.1,0.4,0.1,0.6c0,0.3,0.1,0.5,0.1,0.8c0,0.2,0,0.3,0.1,0.5c0,0.4,0.1,0.8,0.1,1.3c0,5-2.4,9.8-6.6,12.7
				H53.9C49.8,66.3,47.4,61.6,47.4,56.5z M73.2,73.1H52.8c-0.5,0-0.9-0.4-0.9-0.9s0.4-0.9,0.9-0.9h0.8h18.7h0.8
				c0.5,0,0.9,0.4,0.9,0.9S73.7,73.1,73.2,73.1z"/><path fill="#fff" d="M52.6,74.1H21.8c-4.8,0-7.8-5.2-5.4-9.3l15.1-22V26.9h11.3v15.9l15.1,22C60.4,68.9,57.4,74.1,52.6,74.1z"/><path fill="#e05445" d="M51.5,55.4c-7,5.1-17.5-3.5-28.6,0l-6.4,9.4c-2.4,4.1,0.6,9.3,5.4,9.3h30.7c4.8,0,7.8-5.2,5.4-9.4L51.5,55.4
				z"/><path fill="#fff" d="M20.4,61.2l1.4-2l0.6-0.2c2-0.6,4.1-1,6.4-1c3.5,0,6.9,0.8,9.9,1.4c2.6,0.6,5,1.1,7.2,1.1
				c1.9,0,3.4-0.4,4.6-1.3l1.4-1l2.1,3h1.5l-4-5.8c-7,5.1-17.5-3.5-28.6,0l-4,5.8H20.4z" opacity=".4"/><rect width="15.6" height="4.7" x="29.4" y="22.1" fill="#e05445"/><rect width="15.6" height="1.9" x="29.4" y="22.1" fill="#fff" opacity=".4"/><g><path fill="#241c70" d="M58.8,64.2l-6.4-9.4l0,0l-8.5-12.4V27.9h1.2c0.6,0,1-0.4,1-1v-4.7c0-0.6-0.4-1-1-1H29.4c-0.6,0-1,0.4-1,1
				v4.7c0,0.6,0.4,1,1,1h1.2v14.5l-8.5,12.4l0,0l-6.5,9.4c-1.3,2.3-1.3,5,0,7.2c1.3,2.3,3.6,3.6,6.3,3.6h30.7c2.6,0,5-1.4,6.3-3.6
				C60.2,69.2,60.1,66.5,58.8,64.2z M30.4,25.9v-2.7H44v2.7h-1.2H31.6H30.4z M32.4,43.3c0.1-0.2,0.2-0.4,0.2-0.6V27.9h9.3v14.9
				c0,0.2,0.1,0.4,0.2,0.6l8.1,11.8c-3.1,1.7-7,0.8-11.5-0.2c-4.1-0.9-8.6-1.9-13.4-1.1L32.4,43.3z M57.1,70.5
				c-0.9,1.6-2.6,2.6-4.5,2.6H21.8c-1.9,0-3.6-1-4.5-2.6s-0.9-3.6,0-5.2l6.2-9.1c5-1.5,9.9-0.4,14.6,0.6c4.8,1.1,9.3,2.1,13.1-0.1
				l5.8,8.5C58.1,66.9,58.1,68.9,57.1,70.5z"/></g><g><path fill="#241c70" d="M28.1,66.8c0,1.1-0.9,2-2.1,2c-1.1,0-2-0.9-2-2.1c0-1.1,0.9-2,2.1-2C27.2,64.7,28.1,65.6,28.1,66.8z"/></g><g><path fill="#241c70" d="M41.4,49.9c0,0.9-0.7,1.6-1.6,1.5c-0.9,0-1.5-0.7-1.5-1.6s0.7-1.5,1.6-1.5C40.7,48.3,41.4,49,41.4,49.9z"/></g><g><path fill="#241c70" d="M36.7,32.9c0,0.5-0.4,1-1,1c-0.5,0-1-0.4-1-1c0-0.5,0.4-1,1-1C36.2,32,36.7,32.4,36.7,32.9z"/></g><g><path fill="#241c70" d="M38.5,61c0,0.9-0.7,1.5-1.6,1.5c-0.9,0-1.5-0.7-1.5-1.6s0.7-1.5,1.6-1.5C37.9,59.4,38.6,60.1,38.5,61z"/></g><g><path fill="#241c70" d="M52.5,68.2c0,0.8-0.6,1.4-1.4,1.4c-0.8,0-1.4-0.6-1.3-1.4c0-0.8,0.6-1.4,1.4-1.3
				C51.9,66.8,52.5,67.4,52.5,68.2z"/></g></svg>