<svg xmlns="http://www.w3.org/2000/svg" enable-background="new 0 0 66 66" viewBox="0 0 66 66"><path fill="#465C6A" d="M61.9,15.4h1.8v-2.6c0-0.9-0.8-1.7-1.7-1.7s-1.7,0.8-1.7,1.7v2.6H61.9L61.9,15.4z"/><polygon fill="#E8664A" points="61.9 22.7 61.9 22.7 59.6 22.7 59.5 22.7 59 22.7 59 56.8 65 56.8 65 56.8 61.9 56.8"/><path fill="#E8664A" d="M65 15.7c0 .1 0 .1 0 .2l0 0C65 15.8 65 15.7 65 15.7zM59.6 19.3h2.3l0 0v-4h-1.6-.8c-.3 0-.5.2-.5.5v3.5H59.6L59.6 19.3z"/><path fill="#D95239" d="M64.5,15.4h-0.8h-1.8l0,0v4H65v-3.5c0-0.1,0-0.1,0-0.2C64.9,15.5,64.7,15.4,64.5,15.4z"/><rect width="3.1" height="34.1" x="61.9" y="22.7" fill="#D95239"/><path fill="#FAD22C" d="M59,56.8l1.7,7.7c0.1,0.2,0.3,0.4,0.5,0.4h1.4c0.3,0,0.5-0.2,0.5-0.4l1.8-7.8L59,56.8L59,56.8z"/><polygon fill="#FAD22C" points="59.6 22.7 61.9 22.7 61.9 19.3 59.6 19.3 59.5 19.3 59 19.3 58.3 19.3 58.3 22.7 59 22.7 59.5 22.7"/><polygon fill="#E0B624" points="61.9 19.3 61.9 22.7 61.9 22.7 65 22.7 65 22.7 65 19.3 65 19.3"/><path fill="#E0B624" d="M58.3,17.7c0-0.6-0.5-1.1-1.1-1.1s-1.1,0.5-1.1,1.1v17.4c0,0.6,0.5,1.1,1.1,1.1s1.1-0.5,1.1-1.1V22.7v-3.3
		V17.7z"/><path fill="#E6E6E8" d="M20.9 39.4c3.4 0 6.6 1 9.4 2.9v-4.7H12.5v-5.2h17.8v-5H12.5V22h17.8v-5H12.4v-5.2h17.9V1.1H6.2V48C9.1 42.8 14.6 39.4 20.9 39.4zM14.9 52.8h12c-1.2-2.1-3.4-3.5-6-3.5h-.1l0 0C18.3 49.3 16.1 50.7 14.9 52.8z"/><polygon fill="#E6E6E8" points="40.5 64.5 54.4 64.5 54.4 64.5"/><path fill="#D4D8DB" d="M38.4,1.1h-8.1v10.7h2.9V17h-2.9v5h17.8v5.2H30.3v5h17.8v5.2H30.3v4.7c0.1,0.1,0.3,0.2,0.4,0.3h17.4v5.2
		H35.4c0.9,1.5,1.6,3.2,1.9,5h10.8V58h-7.3v2.4v3.5c0,0.3-0.1,0.5-0.3,0.7h13.9V17h-16V1.1z"/><polygon fill="#E6E6E8" points="38.4 17 54.4 17 38.4 1.1"/><polygon fill="#6FAC43" points="12.4 17 30.3 17 33.2 17 33.2 11.8 30.3 11.8 12.4 11.8"/><rect width="17.8" height="5.2" x="12.5" y="22" fill="#1576AC"/><rect width="17.8" height="5.2" x="12.5" y="32.3" fill="#1576AC"/><path fill="#1576AC" d="M27.8,55.9c-0.1-1.1-0.4-2.2-0.9-3.1h-12c-0.5,0.9-0.8,2-0.9,3.1l0,0h7H27.8L27.8,55.9z"/><rect width="17.8" height="5.2" x="30.3" y="22" fill="#1E87B7"/><rect width="17.8" height="5.2" x="30.3" y="32.3" fill="#1E87B7"/><path fill="#1E87B7" d="M35.4 47.8h12.7v-5.2H30.7C32.6 43.9 34.2 45.7 35.4 47.8zM39.8 55.9c.5 0 1 .4 1 1V58h7.3v-5.2H37.3c.2 1 .3 2.1.4 3.1C37.7 55.9 39.8 55.9 39.8 55.9z"/><path fill="#D5B79F" d="M20.8,39.4v4.7C14.3,44.2,9,49.4,9,55.9H4c0-0.1,0-0.1,0-0.2c0.1-2.8,0.8-5.5,2.1-7.8
		C9.3,42.4,15.1,39.4,20.8,39.4z"/><path fill="#D5B79F" d="M40.7 56.9v3.4h-4.1v-.8h-1.8v.8h-5.6v-.8h-1.8v.8h-5.6v-.8H21v-3.7h6.8v-.1c-.2-3.6-3.2-6.6-6.9-6.6h-.1v-5.2h.1c6.5 0 11.8 5.3 11.8 11.8h7.1C40.3 55.9 40.7 56.4 40.7 56.9zM1.6 56C1.2 56.2 1 56.5 1 56.9l0 0C1 56.5 1.2 56.2 1.6 56zM21 62.6h-1v-2.2h-5.6v2.2h-1.8v-2.2H7v2.2H5.1v-2.2H1v3.4c0 .5.4 1 1 1h19V62.6zM16.2 60.8H18v1.8h-1.8V60.8zM8.8 60.8h1.8v1.8H8.8V60.8z"/><path fill="#C6A28A" d="M40.7 63.9v-3.5h-4.1v2.3h-1.8v-2.3h-5.6v2.3h-1.8v-2.3h-5.6v2.3H21V65h18.8c.3 0 .5-.1.7-.3l0 0C40.6 64.4 40.7 64.1 40.7 63.9zM31 60.8h1.8v1.8H31V60.8zM23.6 60.8h1.8v1.8h-1.8V60.8zM5.1 59.6H7v.8h5.6v-.8h1.8v.8H20v-.8h1v-3.7h-7H4 2c-.1 0-.3 0-.4.1C1.2 56.2 1 56.5 1 56.9v3.5h4.1V59.6zM20.8 49.3v-5.2C14.3 44.2 9 49.4 9 55.9h5l0 0c.1-1.1.4-2.2.9-3.1C16.1 50.7 18.3 49.3 20.8 49.3zM37.7 55.9h-5c0-6.5-5.3-11.8-11.8-11.8h-.1v-4.7h.1c.6 0 1.1 0 1.7.1C31 40.3 37.6 47.3 37.7 55.9z"/><polygon fill="#465C6A" points="5.1 59.6 5.1 60.5 5.1 62.6 7 62.6 7 60.5 7 59.6"/><rect width="1.8" height="1.8" x="8.8" y="60.8" fill="#465C6A"/><polygon fill="#465C6A" points="12.5 59.6 12.5 60.5 12.5 62.6 14.4 62.6 14.4 60.5 14.4 59.6"/><rect width="1.8" height="1.8" x="16.2" y="60.8" fill="#465C6A"/><polygon fill="#465C6A" points="21 59.6 19.9 59.6 19.9 60.5 19.9 62.6 21 62.6 21.8 62.6 21.8 60.4 21.8 59.6"/><rect width="1.8" height="1.8" x="23.6" y="60.8" fill="#465C6A"/><polygon fill="#465C6A" points="27.4 59.6 27.4 60.4 27.4 62.6 29.2 62.6 29.2 60.4 29.2 59.6"/><rect width="1.8" height="1.8" x="31" y="60.8" fill="#465C6A"/><polygon fill="#465C6A" points="34.8 59.6 34.8 60.4 34.8 62.6 36.6 62.6 36.6 60.4 36.6 59.6"/></svg>